<svg width="19" height="19" viewBox="0 0 19 19" fill="none" xmlns="http://www.w3.org/2000/svg">
<path fill-rule="evenodd" clip-rule="evenodd" d="M0.851562 9.49463C0.851562 5.89949 0.851562 4.10192 1.70825 2.80718C2.09081 2.22902 2.58595 1.73388 3.16412 1.35132C4.45885 0.494629 6.25642 0.494629 9.85156 0.494629C13.4467 0.494629 15.2443 0.494629 16.539 1.35132C17.1172 1.73388 17.6123 2.22902 17.9949 2.80718C18.8516 4.10192 18.8516 5.89949 18.8516 9.49463C18.8516 13.0898 18.8516 14.8873 17.9949 16.1821C17.6123 16.7602 17.1172 17.2554 16.539 17.6379C15.2443 18.4946 13.4467 18.4946 9.85156 18.4946C6.25642 18.4946 4.45885 18.4946 3.16412 17.6379C2.58595 17.2554 2.09081 16.7602 1.70825 16.1821C0.851562 14.8873 0.851562 13.0898 0.851562 9.49463ZM14.5108 9.49486C14.5108 12.0682 12.4247 14.1543 9.8514 14.1543C7.27808 14.1543 5.19199 12.0682 5.19199 9.49486C5.19199 6.92154 7.27808 4.83545 9.8514 4.83545C12.4247 4.83545 14.5108 6.92154 14.5108 9.49486ZM9.8514 12.5779C11.5541 12.5779 12.9344 11.1976 12.9344 9.49486C12.9344 7.79216 11.5541 6.41185 9.8514 6.41185C8.14871 6.41185 6.7684 7.79216 6.7684 9.49486C6.7684 11.1976 8.14871 12.5779 9.8514 12.5779ZM14.6948 5.69618C15.2995 5.69618 15.7897 5.20601 15.7897 4.60135C15.7897 3.9967 15.2995 3.50653 14.6948 3.50653C14.0902 3.50653 13.6 3.9967 13.6 4.60135C13.6 5.20601 14.0902 5.69618 14.6948 5.69618Z" fill="#E3000B"/>
</svg>
