<svg width="19" height="19" viewBox="0 0 19 19" fill="none" xmlns="http://www.w3.org/2000/svg">
<path d="M0.851562 3.41468C0.851562 2.83747 1.05427 2.36128 1.45967 1.98611C1.86507 1.61092 2.39211 1.42334 3.04075 1.42334C3.67782 1.42334 4.19326 1.60803 4.58708 1.97745C4.99248 2.3584 5.19519 2.85479 5.19519 3.46663C5.19519 4.02074 4.99829 4.48249 4.60446 4.85191C4.19906 5.23286 3.66623 5.42334 3.006 5.42334H2.98863C2.35156 5.42334 1.83612 5.23286 1.4423 4.85191C1.04847 4.47096 0.851562 3.99188 0.851562 3.41468ZM1.07743 18.5662V6.9991H4.93457V18.5662H1.07743ZM7.07164 18.5662H10.9288V12.1073C10.9288 11.7033 10.9751 11.3916 11.0678 11.1723C11.2299 10.7798 11.4761 10.4479 11.8062 10.1766C12.1363 9.90529 12.5504 9.76966 13.0485 9.76966C14.3458 9.76966 14.9944 10.6412 14.9944 12.3844V18.5662H18.8516V11.9342C18.8516 10.2256 18.4462 8.92983 17.6353 8.04671C16.8245 7.1636 15.7531 6.72204 14.4211 6.72204C12.9269 6.72204 11.7628 7.36273 10.9288 8.64412V8.67875H10.9114L10.9288 8.64412V6.9991H7.07164C7.0948 7.3685 7.10639 8.51712 7.10639 10.445C7.10639 12.3728 7.0948 15.0799 7.07164 18.5662Z" fill="#E3000B"/>
</svg>
